<svg width="180" height="150" viewBox="0 0 224 100" fill="none" xmlns="http://www.w3.org/2000/svg">
<path d="M214 112C219.523 112 224.046 107.514 223.554 102.013C222.544 90.7284 219.825 79.6425 215.475 69.1395C209.846 55.551 201.596 43.2042 191.196 32.804C180.796 22.4039 168.449 14.154 154.861 8.52549C141.272 2.89696 126.708 -6.42909e-07 112 0C97.2919 6.42909e-07 82.7279 2.89697 69.1395 8.52549C55.551 14.154 43.2042 22.4039 32.804 32.804C22.4039 43.2042 14.154 55.551 8.52549 69.1395C4.17498 79.6425 1.4564 90.7284 0.446133 102.013C-0.046329 107.514 4.47715 112 10 112H12.388C17.9108 112 22.3303 107.509 22.9454 102.021C23.8802 93.6787 25.9843 85.4927 29.2093 77.707C33.7127 66.8347 40.3135 56.956 48.6347 48.6347C56.956 40.3135 66.8347 33.7127 77.707 29.2093C88.5792 24.7059 100.232 22.388 112 22.388C123.768 22.388 135.421 24.7059 146.293 29.2093C157.165 33.7127 167.044 40.3135 175.365 48.6347C183.687 56.956 190.287 66.8347 194.791 77.707C198.016 85.4927 200.12 93.6787 201.055 102.021C201.67 107.509 206.089 112 211.612 112H214Z" fill="#F4D7CF"/>
<path d="M163.451 23.9271C166.236 19.1583 164.645 12.9896 159.646 10.6401C144.894 3.70555 128.767 0.0571982 112.387 0.000666949C92.6636 -0.0673984 73.2724 5.074 56.174 14.9049C39.0757 24.7358 24.8766 38.9075 15.0128 55.9868C6.8204 70.172 1.85981 85.9449 0.431046 102.183C-0.0530387 107.684 4.47728 112.164 10.0001 112.155L12.3881 112.152C17.911 112.143 22.3236 107.646 22.9303 102.156C24.2885 89.8664 28.1801 77.953 34.3998 67.1835C42.2919 53.5182 53.6527 42.1793 67.3332 34.3135C81.0137 26.4477 96.5288 22.3341 112.309 22.3885C124.746 22.4314 136.999 25.0619 148.304 30.0711C153.353 32.3085 159.46 30.7578 162.246 25.989L163.451 23.9271Z" fill="#F47551"/>
<circle cx="152" cy="19" r="7" fill="white"/>
<path d="M69.056 119.144C68.2347 119.144 67.488 118.957 66.816 118.584C66.1547 118.211 65.632 117.683 65.248 117C64.8747 116.307 64.688 115.507 64.688 114.6C64.688 113.704 64.88 112.915 65.264 112.232C65.6587 111.539 66.192 111.011 66.864 110.648C67.536 110.275 68.288 110.088 69.12 110.088C69.952 110.088 70.704 110.275 71.376 110.648C72.048 111.011 72.576 111.533 72.96 112.216C73.3547 112.899 73.552 113.693 73.552 114.6C73.552 115.507 73.3493 116.307 72.944 117C72.5493 117.683 72.0107 118.211 71.328 118.584C70.6453 118.957 69.888 119.144 69.056 119.144ZM69.056 117.864C69.5787 117.864 70.0693 117.741 70.528 117.496C70.9867 117.251 71.3547 116.883 71.632 116.392C71.92 115.901 72.064 115.304 72.064 114.6C72.064 113.896 71.9253 113.299 71.648 112.808C71.3707 112.317 71.008 111.955 70.56 111.72C70.112 111.475 69.6267 111.352 69.104 111.352C68.5707 111.352 68.08 111.475 67.632 111.72C67.1947 111.955 66.8427 112.317 66.576 112.808C66.3093 113.299 66.176 113.896 66.176 114.6C66.176 115.315 66.304 115.917 66.56 116.408C66.8267 116.899 67.1787 117.267 67.616 117.512C68.0533 117.747 68.5333 117.864 69.056 117.864ZM79.0344 111.432H77.1944V119H75.7384V111.432H74.6024V110.232H75.7384V109.608C75.7384 108.627 75.989 107.912 76.4904 107.464C77.0024 107.005 77.8184 106.776 78.9384 106.776V107.992C78.2984 107.992 77.845 108.12 77.5784 108.376C77.3224 108.621 77.1944 109.032 77.1944 109.608V110.232H79.0344V111.432ZM84.5816 117.832C85.9363 116.744 86.9976 115.853 87.7656 115.16C88.5336 114.456 89.179 113.725 89.7016 112.968C90.235 112.2 90.5016 111.448 90.5016 110.712C90.5016 110.019 90.331 109.475 89.9896 109.08C89.659 108.675 89.1203 108.472 88.3736 108.472C87.6483 108.472 87.083 108.701 86.6776 109.16C86.283 109.608 86.0696 110.211 86.0376 110.968H84.6296C84.6723 109.773 85.035 108.851 85.7176 108.2C86.4003 107.549 87.2803 107.224 88.3576 107.224C89.4563 107.224 90.3256 107.528 90.9656 108.136C91.6163 108.744 91.9416 109.581 91.9416 110.648C91.9416 111.533 91.675 112.397 91.1416 113.24C90.619 114.072 90.0216 114.808 89.3496 115.448C88.6776 116.077 87.819 116.813 86.7736 117.656H92.2776V118.872H84.5816V117.832ZM93.7848 117.832C95.1394 116.744 96.2008 115.853 96.9688 115.16C97.7368 114.456 98.3821 113.725 98.9048 112.968C99.4381 112.2 99.7048 111.448 99.7048 110.712C99.7048 110.019 99.5341 109.475 99.1928 109.08C98.8621 108.675 98.3234 108.472 97.5768 108.472C96.8514 108.472 96.2861 108.701 95.8808 109.16C95.4861 109.608 95.2728 110.211 95.2408 110.968H93.8328C93.8754 109.773 94.2381 108.851 94.9208 108.2C95.6034 107.549 96.4834 107.224 97.5608 107.224C98.6594 107.224 99.5288 107.528 100.169 108.136C100.819 108.744 101.145 109.581 101.145 110.648C101.145 111.533 100.878 112.397 100.345 113.24C99.8221 114.072 99.2248 114.808 98.5528 115.448C97.8808 116.077 97.0221 116.813 95.9768 117.656H101.481V118.872H93.7848V117.832ZM102.78 108.76V107.432H105.788V119H104.316V108.76H102.78ZM108.257 110.344C108.332 109.363 108.71 108.595 109.393 108.04C110.076 107.485 110.961 107.208 112.049 107.208C112.774 107.208 113.398 107.341 113.921 107.608C114.454 107.864 114.854 108.216 115.121 108.664C115.398 109.112 115.537 109.619 115.537 110.184C115.537 110.845 115.345 111.416 114.961 111.896C114.588 112.376 114.097 112.685 113.489 112.824V112.904C114.182 113.075 114.732 113.411 115.137 113.912C115.542 114.413 115.745 115.069 115.745 115.88C115.745 116.488 115.606 117.037 115.329 117.528C115.052 118.008 114.636 118.387 114.081 118.664C113.526 118.941 112.86 119.08 112.081 119.08C110.95 119.08 110.022 118.787 109.297 118.2C108.572 117.603 108.166 116.76 108.081 115.672H109.489C109.564 116.312 109.825 116.835 110.273 117.24C110.721 117.645 111.318 117.848 112.065 117.848C112.812 117.848 113.377 117.656 113.761 117.272C114.156 116.877 114.353 116.371 114.353 115.752C114.353 114.952 114.086 114.376 113.553 114.024C113.02 113.672 112.214 113.496 111.137 113.496H110.769V112.28H111.153C112.134 112.269 112.876 112.109 113.377 111.8C113.878 111.48 114.129 110.989 114.129 110.328C114.129 109.763 113.942 109.309 113.569 108.968C113.206 108.627 112.684 108.456 112.001 108.456C111.34 108.456 110.806 108.627 110.401 108.968C109.996 109.309 109.756 109.768 109.681 110.344H108.257ZM127.112 119L123.672 115.128V119H122.216V107.16H123.672V114.12L127.048 110.232H129.08L124.952 114.6L129.096 119H127.112ZM129.907 114.6C129.907 113.693 130.088 112.904 130.451 112.232C130.813 111.549 131.315 111.021 131.955 110.648C132.605 110.275 133.347 110.088 134.179 110.088C135.256 110.088 136.141 110.349 136.835 110.872C137.539 111.395 138.003 112.12 138.227 113.048H136.659C136.509 112.515 136.216 112.093 135.779 111.784C135.352 111.475 134.819 111.32 134.179 111.32C133.347 111.32 132.675 111.608 132.163 112.184C131.651 112.749 131.395 113.555 131.395 114.6C131.395 115.656 131.651 116.472 132.163 117.048C132.675 117.624 133.347 117.912 134.179 117.912C134.819 117.912 135.352 117.763 135.779 117.464C136.205 117.165 136.499 116.739 136.659 116.184H138.227C137.992 117.08 137.523 117.8 136.819 118.344C136.115 118.877 135.235 119.144 134.179 119.144C133.347 119.144 132.605 118.957 131.955 118.584C131.315 118.211 130.813 117.683 130.451 117C130.088 116.317 129.907 115.517 129.907 114.6ZM139.626 114.584C139.626 113.688 139.807 112.904 140.17 112.232C140.532 111.549 141.028 111.021 141.658 110.648C142.298 110.275 143.007 110.088 143.786 110.088C144.554 110.088 145.22 110.253 145.786 110.584C146.351 110.915 146.772 111.331 147.05 111.832V110.232H148.522V119H147.05V117.368C146.762 117.88 146.33 118.307 145.754 118.648C145.188 118.979 144.527 119.144 143.77 119.144C142.991 119.144 142.287 118.952 141.658 118.568C141.028 118.184 140.532 117.645 140.17 116.952C139.807 116.259 139.626 115.469 139.626 114.584ZM147.05 114.6C147.05 113.939 146.916 113.363 146.65 112.872C146.383 112.381 146.02 112.008 145.562 111.752C145.114 111.485 144.618 111.352 144.074 111.352C143.53 111.352 143.034 111.48 142.586 111.736C142.138 111.992 141.78 112.365 141.514 112.856C141.247 113.347 141.114 113.923 141.114 114.584C141.114 115.256 141.247 115.843 141.514 116.344C141.78 116.835 142.138 117.213 142.586 117.48C143.034 117.736 143.53 117.864 144.074 117.864C144.618 117.864 145.114 117.736 145.562 117.48C146.02 117.213 146.383 116.835 146.65 116.344C146.916 115.843 147.05 115.261 147.05 114.6ZM152.438 107.16V119H150.982V107.16H152.438Z" fill="black" fill-opacity="0.2"/>
<path d="M60.08 78V75.504H65.072V93H62.312V78H60.08ZM79.9186 77.616L73.2466 93H70.4866L77.2306 77.904H68.3506V75.576H79.9186V77.616ZM83.7723 89.28C85.3083 87.952 86.5163 86.864 87.3963 86.016C88.2923 85.152 89.0363 84.256 89.6283 83.328C90.2203 82.4 90.5163 81.472 90.5163 80.544C90.5163 79.584 90.2843 78.832 89.8203 78.288C89.3723 77.744 88.6603 77.472 87.6843 77.472C86.7403 77.472 86.0043 77.776 85.4763 78.384C84.9643 78.976 84.6923 79.776 84.6603 80.784H82.0203C82.0683 78.96 82.6123 77.568 83.6523 76.608C84.7083 75.632 86.0443 75.144 87.6603 75.144C89.4043 75.144 90.7643 75.624 91.7403 76.584C92.7323 77.544 93.2283 78.824 93.2283 80.424C93.2283 81.576 92.9323 82.688 92.3403 83.76C91.7643 84.816 91.0683 85.768 90.2523 86.616C89.4523 87.448 88.4283 88.416 87.1803 89.52L86.1003 90.48H93.7083V92.76H82.0443V90.768L83.7723 89.28ZM95.7519 78V75.504H100.744V93H97.9839V78H95.7519ZM120.289 93L113.833 85.536V93H111.097V76.32H113.833V83.928L120.313 76.32H123.745L116.497 84.672L123.865 93H120.289ZM125.372 86.376C125.372 85.016 125.644 83.824 126.188 82.8C126.748 81.76 127.516 80.96 128.492 80.4C129.468 79.84 130.588 79.56 131.852 79.56C133.452 79.56 134.772 79.944 135.812 80.712C136.868 81.464 137.58 82.544 137.948 83.952H134.996C134.756 83.296 134.372 82.784 133.844 82.416C133.316 82.048 132.652 81.864 131.852 81.864C130.732 81.864 129.836 82.264 129.164 83.064C128.508 83.848 128.18 84.952 128.18 86.376C128.18 87.8 128.508 88.912 129.164 89.712C129.836 90.512 130.732 90.912 131.852 90.912C133.436 90.912 134.484 90.216 134.996 88.824H137.948C137.564 90.168 136.844 91.24 135.788 92.04C134.732 92.824 133.42 93.216 131.852 93.216C130.588 93.216 129.468 92.936 128.492 92.376C127.516 91.8 126.748 91 126.188 89.976C125.644 88.936 125.372 87.736 125.372 86.376ZM139.763 86.328C139.763 85 140.035 83.824 140.579 82.8C141.139 81.776 141.891 80.984 142.835 80.424C143.795 79.848 144.851 79.56 146.003 79.56C147.043 79.56 147.947 79.768 148.715 80.184C149.499 80.584 150.123 81.088 150.587 81.696V79.776H153.347V93H150.587V91.032C150.123 91.656 149.491 92.176 148.691 92.592C147.891 93.008 146.979 93.216 145.955 93.216C144.819 93.216 143.779 92.928 142.835 92.352C141.891 91.76 141.139 90.944 140.579 89.904C140.035 88.848 139.763 87.656 139.763 86.328ZM150.587 86.376C150.587 85.464 150.395 84.672 150.011 84C149.643 83.328 149.155 82.816 148.547 82.464C147.939 82.112 147.283 81.936 146.579 81.936C145.875 81.936 145.219 82.112 144.611 82.464C144.003 82.8 143.507 83.304 143.123 83.976C142.755 84.632 142.571 85.416 142.571 86.328C142.571 87.24 142.755 88.04 143.123 88.728C143.507 89.416 144.003 89.944 144.611 90.312C145.235 90.664 145.891 90.84 146.579 90.84C147.283 90.84 147.939 90.664 148.547 90.312C149.155 89.96 149.643 89.448 150.011 88.776C150.395 88.088 150.587 87.288 150.587 86.376ZM159.677 75.24V93H156.941V75.24H159.677Z" fill="black"/>
</svg>
